<svg width="30" height="30" viewBox="0 0 30 30" fill="none" xmlns="http://www.w3.org/2000/svg">
<path fill-rule="evenodd" clip-rule="evenodd" d="M12 0C5.37257 0 0 5.37274 0 12C0 18.6274 5.37274 24 12 24C14.8335 24 17.4375 23.0181 19.4903 21.3759L27.0571 28.9427C27.5777 29.4635 28.4219 29.4635 28.9426 28.9427C29.4634 28.422 29.4634 27.5778 28.9426 27.0573L21.3758 19.4904C23.0179 17.4375 23.9999 14.8335 23.9999 12.0001C23.9999 5.37269 18.6273 0.000114223 11.9999 0.000114223L12 0ZM2.66686 12C2.66686 6.84531 6.84543 2.66686 12 2.66686C17.1546 2.66686 21.3337 6.84543 21.3337 12C21.3337 17.1546 17.1549 21.3337 12 21.3337C6.84508 21.3337 2.66686 17.1549 2.66686 12V12Z" fill="#9AA0A6"/>
</svg>
